<svg id="visual" viewBox="0 0 900 600" width="900" height="600" xmlns="http://www.w3.org/2000/svg" xmlns:xlink="http://www.w3.org/1999/xlink" version="1.1"><g transform="translate(437.8187436810265 316.85932382033735)"><path d="M114.2 -220.8C130.5 -188.5 114 -122.4 138.6 -79.9C163.3 -37.5 229.1 -18.8 240 6.3C250.9 31.3 206.9 62.7 168.5 81.4C130.2 100.2 97.6 106.4 70.5 119.7C43.3 133.1 21.7 153.5 -12.3 174.9C-46.3 196.3 -92.7 218.5 -130.3 211.3C-168 204 -197 167.3 -200.7 127.1C-204.4 87 -182.7 43.5 -188.3 -3.2C-193.9 -50 -226.9 -100 -214.6 -125.3C-202.4 -150.5 -144.9 -151 -101.6 -167.7C-58.3 -184.4 -29.2 -217.2 9.9 -234.4C49 -251.5 98 -253.1 114.2 -220.8" fill="#F2ADEF"></path></g></svg>