<svg id="visual" viewBox="0 0 900 600" width="900" height="600" xmlns="http://www.w3.org/2000/svg" xmlns:xlink="http://www.w3.org/1999/xlink" version="1.1"><g transform="translate(433.40870562356895 311.9072757652311)"><path d="M86.1 -166.7C114.3 -133 141.6 -115.2 161.1 -90.1C180.6 -65 192.3 -32.5 202.3 5.7C212.2 44 220.4 88 200.8 113C181.3 137.9 133.9 143.9 95.8 165C57.7 186.2 28.8 222.6 -8.7 237.8C-46.3 252.9 -92.7 246.8 -123.1 221.3C-153.6 195.7 -168.2 150.6 -175.2 110.5C-182.2 70.3 -181.6 35.2 -167.4 8.2C-153.1 -18.8 -125.3 -37.5 -118.1 -77.3C-111 -117.2 -124.5 -178.1 -108.2 -218.7C-92 -259.3 -46 -279.7 -8.5 -265C29 -250.2 58 -200.5 86.1 -166.7" fill="#F2ADEF"></path></g></svg>