<svg id="visual" viewBox="0 0 900 600" width="900" height="600" xmlns="http://www.w3.org/2000/svg" xmlns:xlink="http://www.w3.org/1999/xlink" version="1.1"><g transform="translate(435.4322103165264 276.0905334957199)"><path d="M87 -148.6C107.4 -139 114.7 -104.7 137.7 -75.9C160.7 -47 199.4 -23.5 220.3 12.1C241.2 47.7 244.5 95.3 217.6 117.6C190.8 139.8 133.9 136.6 92.6 150.1C51.3 163.6 25.7 193.8 -2.8 198.7C-31.3 203.6 -62.7 183.2 -106 170.9C-149.3 158.5 -204.5 154.3 -207.6 127.1C-210.7 100 -161.6 50 -136.1 14.8C-110.5 -20.5 -108.5 -41 -100.6 -59.8C-92.7 -78.5 -78.8 -95.6 -61.1 -106.6C-43.3 -117.7 -21.7 -122.9 5.8 -133C33.3 -143.1 66.7 -158.1 87 -148.6" fill="#F2ADEF"></path></g></svg>