<svg id="visual" viewBox="0 0 900 600" width="900" height="600" xmlns="http://www.w3.org/2000/svg" xmlns:xlink="http://www.w3.org/1999/xlink" version="1.1"><g transform="translate(442.74988748578573 287.8647938788819)"><path d="M66.8 -131.2C96.1 -98.8 136 -100.1 176.6 -83.9C217.2 -67.7 258.6 -33.8 267 4.8C275.3 43.5 250.7 87 224.9 128.9C199 170.7 172 210.9 134.3 233.2C96.7 255.4 48.3 259.7 7.6 246.6C-33.2 233.4 -66.3 202.9 -86.8 170.7C-107.3 138.6 -115.2 104.8 -143.7 76.1C-172.3 47.3 -221.7 23.7 -242.6 -12.1C-263.5 -47.8 -256 -95.7 -220.2 -111.8C-184.4 -128 -120.2 -112.5 -78.8 -137.9C-37.3 -163.3 -18.7 -229.7 0 -229.7C18.8 -229.8 37.5 -163.6 66.8 -131.2" fill="#F2ADEF"></path></g></svg>