<svg id="visual" viewBox="0 0 900 600" width="900" height="600" xmlns="http://www.w3.org/2000/svg" xmlns:xlink="http://www.w3.org/1999/xlink" version="1.1"><g transform="translate(434.52984676784024 286.43984064827805)"><path d="M68.5 -126C93.3 -104.3 121.1 -95.1 159.9 -76.2C198.6 -57.3 248.3 -28.7 264.8 9.5C281.2 47.7 264.5 95.3 230.3 122.2C196.1 149 144.6 155.1 103.3 154.6C62 154.1 31 147 -9.5 163.5C-50 179.9 -100 219.9 -116.2 205.9C-132.5 192 -115 124.1 -137.6 80.8C-160.3 37.5 -223.1 18.8 -237.1 -8C-251 -34.8 -216 -69.7 -179.2 -88.4C-142.3 -107.2 -103.7 -109.9 -73.5 -128.5C-43.3 -147.1 -21.7 -181.5 0.1 -181.7C21.8 -181.8 43.7 -147.6 68.5 -126" fill="#F2ADEF"></path></g></svg>