<svg id="visual" viewBox="0 0 900 600" width="900" height="600" xmlns="http://www.w3.org/2000/svg" xmlns:xlink="http://www.w3.org/1999/xlink" version="1.1"><rect x="0" y="0" width="900" height="600" fill="#9352E6"></rect><defs><linearGradient id="grad1_0" x1="33.3%" y1="100%" x2="100%" y2="0%"><stop offset="20%" stop-color="#9352e6" stop-opacity="1"></stop><stop offset="80%" stop-color="#9352e6" stop-opacity="1"></stop></linearGradient></defs><defs><linearGradient id="grad2_0" x1="0%" y1="100%" x2="66.7%" y2="0%"><stop offset="20%" stop-color="#9352e6" stop-opacity="1"></stop><stop offset="80%" stop-color="#9352e6" stop-opacity="1"></stop></linearGradient></defs><g transform="translate(900, 600)"><path d="M-459.7 0C-411.1 -14.3 -362.4 -28.7 -370.2 -53.2C-378 -77.8 -442.2 -112.5 -441.1 -129.5C-439.9 -146.6 -373.4 -146 -350.2 -159.9C-327.1 -173.9 -347.3 -202.4 -350.8 -225.4C-354.3 -248.5 -340.9 -266 -328 -284.2C-315.1 -302.4 -302.6 -321.1 -279.6 -322.7C-256.6 -324.3 -223 -308.7 -208.1 -323.9C-193.3 -339.1 -197.2 -385 -185.3 -405.7C-173.3 -426.3 -145.6 -421.7 -121.7 -414.5C-97.8 -407.3 -77.8 -397.7 -58.2 -404.8C-38.6 -412 -19.3 -435.8 0 -459.7L0 0Z" fill="#F2ADEF"></path></g><g transform="translate(0, 0)"><path d="M459.7 0C456.8 20.9 454 41.9 455 65.4C456.1 89 461 115.1 439.4 129C417.9 142.9 369.8 144.6 360.2 164.5C350.6 184.4 379.4 222.7 373.5 240C367.7 257.4 327.2 253.9 310.6 269.1C294.1 284.4 301.4 318.3 288.8 333.3C276.2 348.3 243.6 344.4 216.3 336.5C188.9 328.6 166.9 316.6 154.5 338.4C142.1 360.2 139.3 415.9 122.6 417.4C105.8 418.9 75.1 366.2 52.4 364.3C29.6 362.3 14.8 411 0 459.7L0 0Z" fill="#F2ADEF"></path></g></svg>