<svg id="visual" viewBox="0 0 900 600" width="900" height="600" xmlns="http://www.w3.org/2000/svg" xmlns:xlink="http://www.w3.org/1999/xlink" version="1.1"><path d="M0 205L13.7 202C27.3 199 54.7 193 82 187C109.3 181 136.7 175 163.8 163C191 151 218 133 245.2 139C272.3 145 299.7 175 327 183C354.3 191 381.7 177 409 168C436.3 159 463.7 155 491 162C518.3 169 545.7 187 573 196C600.3 205 627.7 205 654.8 205C682 205 709 205 736.2 194C763.3 183 790.7 161 818 149C845.3 137 872.7 135 886.3 134L900 133L900 0L886.3 0C872.7 0 845.3 0 818 0C790.7 0 763.3 0 736.2 0C709 0 682 0 654.8 0C627.7 0 600.3 0 573 0C545.7 0 518.3 0 491 0C463.7 0 436.3 0 409 0C381.7 0 354.3 0 327 0C299.7 0 272.3 0 245.2 0C218 0 191 0 163.8 0C136.7 0 109.3 0 82 0C54.7 0 27.3 0 13.7 0L0 0Z" fill="#f2adef"></path><path d="M0 409L13.7 392C27.3 375 54.7 341 82 334C109.3 327 136.7 347 163.8 363C191 379 218 391 245.2 402C272.3 413 299.7 423 327 429C354.3 435 381.7 437 409 423C436.3 409 463.7 379 491 363C518.3 347 545.7 345 573 356C600.3 367 627.7 391 654.8 403C682 415 709 415 736.2 397C763.3 379 790.7 343 818 335C845.3 327 872.7 347 886.3 357L900 367L900 131L886.3 132C872.7 133 845.3 135 818 147C790.7 159 763.3 181 736.2 192C709 203 682 203 654.8 203C627.7 203 600.3 203 573 194C545.7 185 518.3 167 491 160C463.7 153 436.3 157 409 166C381.7 175 354.3 189 327 181C299.7 173 272.3 143 245.2 137C218 131 191 149 163.8 161C136.7 173 109.3 179 82 185C54.7 191 27.3 197 13.7 200L0 203Z" fill="#9352e6"></path><path d="M0 601L13.7 601C27.3 601 54.7 601 82 601C109.3 601 136.7 601 163.8 601C191 601 218 601 245.2 601C272.3 601 299.7 601 327 601C354.3 601 381.7 601 409 601C436.3 601 463.7 601 491 601C518.3 601 545.7 601 573 601C600.3 601 627.7 601 654.8 601C682 601 709 601 736.2 601C763.3 601 790.7 601 818 601C845.3 601 872.7 601 886.3 601L900 601L900 365L886.3 355C872.7 345 845.3 325 818 333C790.7 341 763.3 377 736.2 395C709 413 682 413 654.8 401C627.7 389 600.3 365 573 354C545.7 343 518.3 345 491 361C463.7 377 436.3 407 409 421C381.7 435 354.3 433 327 427C299.7 421 272.3 411 245.2 400C218 389 191 377 163.8 361C136.7 345 109.3 325 82 332C54.7 339 27.3 373 13.7 390L0 407Z" fill="#f2adef"></path></svg>