<svg id="visual" viewBox="0 0 900 675" width="900" height="675" xmlns="http://www.w3.org/2000/svg" xmlns:xlink="http://www.w3.org/1999/xlink" version="1.1"><rect x="0" y="0" width="900" height="675" fill="#9352E6"></rect><path d="M0 92L21.5 110.3C43 128.7 86 165.3 128.8 191.7C171.7 218 214.3 234 257.2 221.3C300 208.7 343 167.3 385.8 156.2C428.7 145 471.3 164 514.2 175.8C557 187.7 600 192.3 642.8 192C685.7 191.7 728.3 186.3 771.2 173.3C814 160.3 857 139.7 878.5 129.3L900 119L900 0L878.5 0C857 0 814 0 771.2 0C728.3 0 685.7 0 642.8 0C600 0 557 0 514.2 0C471.3 0 428.7 0 385.8 0C343 0 300 0 257.2 0C214.3 0 171.7 0 128.8 0C86 0 43 0 21.5 0L0 0Z" fill="#F2ADEF" stroke-linecap="round" stroke-linejoin="miter"></path></svg>